<?xml version="1.0" encoding="UTF-8" standalone="no"?><!DOCTYPE svg PUBLIC "-//W3C//DTD SVG 1.1//EN" "http://www.w3.org/Graphics/SVG/1.1/DTD/svg11.dtd"><svg width="100%" height="100%" viewBox="0 0 292 253" version="1.1" xmlns="http://www.w3.org/2000/svg" xmlns:xlink="http://www.w3.org/1999/xlink" xml:space="preserve" xmlns:serif="http://www.serif.com/" style="fill-rule:evenodd;clip-rule:evenodd;stroke-linejoin:round;stroke-miterlimit:2;"><g id="ChatGPT-Image-Jul-11--2026--01_51_12-PM.png" serif:id="ChatGPT Image Jul 11, 2026, 01_51_12 PM.png"><path d="M125.165,24.022c2.877,6.577 -0.188,9.855 2.661,9.833c5.854,-0.046 28.454,-0.951 30.927,-1.05c1.617,-0.065 -2.015,-12.319 7.552,-13.427c2.884,-0.334 7.591,1.475 7.973,7.999c0.21,3.581 -1.141,5.057 1.498,4.944c26.89,-1.153 27.958,0.342 27.974,-1.158c0.005,-0.464 -0.691,-6.44 1.806,-9.671c2.951,-3.818 11.38,-3.209 11.944,5.567c0.034,0.535 -0.317,4.848 1.184,4.834c27.673,-0.256 29.904,4.928 31.233,26.406c1.263,20.406 1.589,85.174 2.863,86.076c1.485,1.05 22.293,-1.435 34.707,21.798c0.133,0.248 0.108,0.237 1.463,3.199c0.321,0.993 4.821,10.778 2.135,28.655c-4.127,27.468 -35.355,42.701 -64.508,28.713c-2.942,-1.786 -2.905,-1.746 -5.684,-3.77c-1.12,-0.816 -1.914,0.126 -58.681,0.899c-49.72,0.677 -49.673,0.916 -99.375,1.456c-13.462,-0.549 -21.193,-4.873 -24.101,-16.835c-2.373,-24.002 -3.9,-121.338 -4.079,-127.479c-0.033,-27.021 -2.68,-39.359 13.036,-43.236c6.574,-1.622 16.013,-1.066 16.25,-2.159c0.009,-0.04 -1.523,-14.276 8.999,-12.683c7.131,1.079 5.489,12.095 6.251,12.428c0.39,0.171 32.18,-0.874 32.508,-1.373c0.062,-0.095 -1.599,-14.722 8.531,-13.409c2.62,0.34 4.644,3.056 4.932,3.442Z" style="fill:#16223a;"/><path d="M40.363,128.965c-0.01,-2.754 -1.189,-53.224 -1.054,-57.095c0.072,-2.05 6.451,-0.712 24.486,-1.427c77.26,-3.063 77.245,-1.94 154.575,-3.208c20.271,-0.332 26.306,-0.967 26.837,-0.794c1.062,0.345 1.171,45.782 2.568,77.036c0.064,1.426 -3.265,1.062 -7.939,1.975c-17.496,3.416 -31.59,17.557 -34.757,35.243c-4.141,23.131 9.983,36.761 10.02,36.955c0.167,0.862 -0.458,0.408 -4.619,0.498c-10.447,0.224 -105.544,2.266 -130.602,2.193c-12.912,-0.038 -31.562,2.613 -35.897,-10.322c-2.077,-6.196 -3.58,-72.118 -3.618,-81.054Z" style="fill:#f6f5f6;"/><path d="M183.518,139.688c-1.208,13.97 -4.003,30.539 -28.264,38.749c-25.665,8.685 -61.067,-12.353 -53.779,-45.974c3.354,-15.473 17.362,-29.792 36.133,-31.894c1.853,-0.207 2.697,0.585 2.617,-0.943c-0.696,-13.436 -1.352,-20.505 1.75,-17.926c1.614,1.341 0.814,18.495 1.934,18.59c6.335,0.535 37.627,1.896 39.608,39.399Z" style="fill:#17223a;"/><path d="M125.165,24.022l0.498,-0.108c4.897,-3.283 43.654,-26 74.1,-23.758c59.622,4.391 61.225,62.926 66.491,86.234c9.797,43.364 26.586,47.972 23.872,78.539c-0.302,3.398 -0.372,3.605 -1.175,4.443c-1.355,-2.962 -1.331,-2.95 -1.463,-3.199c-12.414,-23.233 -33.222,-20.747 -34.707,-21.798c-1.274,-0.902 -1.601,-65.67 -2.863,-86.076c-1.329,-21.479 -3.56,-26.663 -31.233,-26.406c-1.502,0.014 -1.15,-4.299 -1.184,-4.834c-0.564,-8.776 -8.993,-9.385 -11.944,-5.567c-2.497,3.232 -1.801,9.207 -1.806,9.671c-0.016,1.5 -1.084,0.006 -27.974,1.158c-2.639,0.113 -1.288,-1.363 -1.498,-4.944c-0.382,-6.525 -5.089,-8.333 -7.973,-7.999c-9.566,1.107 -5.934,13.362 -7.552,13.427c-2.474,0.099 -25.073,1.003 -30.927,1.05c-2.849,0.023 0.217,-3.256 -2.661,-9.833Z" style="fill:#cedae4;"/><path d="M287.225,182.906c0.127,7.679 2.301,31.718 -23.427,41.337c-30.087,11.249 -59.686,-12.483 -54.434,-42.255c2.206,-12.508 12.292,-29.022 31.707,-31.943c27.656,-4.16 44.378,11.689 46.154,32.861Z" style="fill:#4585b6;"/><path d="M282.786,183.173c0.112,6.798 2.037,28.081 -20.74,36.596c-26.637,9.959 -52.841,-11.051 -48.192,-37.409c1.953,-11.073 10.882,-25.694 28.071,-28.28c24.484,-3.683 39.288,10.349 40.861,29.093Z" style="fill:#f6f5f6;"/><path d="M174.835,43.473c-0.224,-6.156 -0.2,-6.345 0.353,-6.51c0.743,-0.221 27.463,-0.51 28.041,-0.46c2.127,0.181 -1.497,15.755 7.883,15.78c8.925,0.024 7.091,-11.1 6.903,-14.802c-0.065,-1.287 2.87,-0.88 6.98,-0.731c18.847,0.682 19.422,5.257 20.378,24.073c0.065,1.269 -2.854,0.885 -9.651,1.084c-53.811,1.581 -75.699,1.088 -90.86,1.402c-104.064,2.155 -105.554,4.171 -105.56,2.246c-0.049,-14.245 -0.745,-20.684 9.994,-23.248c4.059,-0.969 14.132,-1.553 14.159,-1.55c1.81,0.241 -1.433,15.442 8.219,15.569c9.683,0.127 7.477,-13.827 7.44,-15.058c-0.056,-1.846 0.78,-1.32 2.652,-1.374c29.673,-0.853 29.945,-1.072 30.208,-0.498c0.093,0.202 -0.847,16.991 8.9,15.029c9.669,-1.947 4.421,-15.889 6.638,-15.997c2.497,-0.122 23.178,-1.13 31.235,-0.997c1.279,0.021 0.7,0.696 1.196,6.048c0.1,1.08 1.149,12.416 9.807,9.355c5.686,-2.01 5.043,-8.523 5.085,-9.361Z" style="fill:#4585b6;"/><path d="M178.858,138.745c-0.077,8.741 -1.394,25.131 -20.189,33.597c-28.368,12.778 -64.271,-13.005 -50.949,-44.921c14.269,-34.184 68.871,-28.131 71.087,9.436c0.037,0.629 0.013,1.26 0.051,1.889Z" style="fill:#f9d479;"/><path d="M62.839,225.325c49.702,-0.539 49.655,-0.779 99.375,-1.456c56.767,-0.773 57.561,-1.715 58.681,-0.899c2.779,2.023 2.742,1.984 5.684,3.77l-0.37,0.335c-8.119,3.399 -59.059,39.822 -121.057,19.765c-21.157,-6.845 -38.028,-18.315 -41.089,-20.333c-0.732,-0.483 -0.588,-0.567 -1.224,-1.181Z" style="fill:#cedae4;"/><path d="M34.659,81.012c0.18,6.141 1.706,103.477 4.079,127.479c-0.757,0.143 -0.763,0.193 -0.818,0.154c-37.874,-26.57 -37.913,-59.138 -37.92,-65.17c-0.039,-32.123 33.432,-61.969 34.135,-62.514l0.315,0.021l0.209,0.029Z" style="fill:#cedae4;"/><path d="M91.723,103.415c0.11,2.167 -0.769,3.307 1.406,3.192c8.184,-0.434 17.784,-1.675 15.786,1.548c-1.098,1.771 -16.78,0.862 -16.887,2.492c-0.02,0.301 1.064,30.716 1.437,31.557c0.115,0.261 6.344,0.683 3.415,2.798c-0.575,0.415 -3.275,0.483 -3.263,1.295c0.019,1.302 1.756,30.916 2.047,31.241c0.924,1.033 19.951,-2.263 16.732,2.24c-1.184,1.656 -16.677,0.308 -16.613,2.186c0.303,8.824 2.25,22.81 -1.301,19.761c-1.931,-1.658 -1.27,-19.848 -2.632,-20.305c-1.042,-0.35 -30.314,2.328 -31.588,0.271c-0.829,-1.339 0.514,-2.217 1.629,-2.294c6.256,-0.431 29.799,-1.023 30.093,-1.792c0.097,-0.253 -1.449,-31.182 -1.801,-31.491c-0.952,-0.835 -29.847,3.605 -31.03,0.492c-0.865,-2.275 1.087,-1.951 30.184,-3.808c0.751,-0.048 0.751,-0.554 0.738,-0.9c-0.091,-2.496 -1.106,-30.398 -1.5,-31.188c-0.573,-1.147 -29.854,2.536 -31.604,0.78c-3.156,-3.167 8.633,-3.082 18.483,-3.761c12.622,-0.87 12.959,-0.919 12.934,-1.477c-0.31,-6.917 -1.941,-21.97 1.877,-18.585c0.881,0.781 0.68,3.119 1.458,15.749Z" style="fill:#19243c;"/><path d="M190.289,108.775c-0.045,-2.287 0.72,-3.396 -1.571,-3.33c-4.031,0.116 -6.861,0.532 -13.882,0.432c-0.981,-0.014 -2.291,-0.659 -2.014,-1.862c0.512,-2.227 15.217,-1.396 16.817,-1.96c1.984,-0.699 -2.17,-20.827 2.245,-20.183c2.847,0.415 1.574,18.685 2.273,19.605c0.664,0.875 30.805,-1.967 32.177,0.949c1.445,3.073 -1.654,1.644 -31.617,2.938c-0.948,0.041 -0.568,3.173 -0.545,4.039c0.274,10.686 0.097,27.138 0.851,27.767c0.444,0.371 25.784,-2.014 27.159,0.295c1.788,3.004 -2.813,1.966 -18.324,2.852c-7.004,0.4 -9.071,-0.004 -9.021,1.263c0.862,22.229 0.523,22.213 1.126,32.498c0.07,1.201 6.078,-0.133 7.236,1.282c2.067,2.527 -6.234,2.463 -6.596,2.503c-1.504,0.164 0.871,17.955 -0.977,19.521c-4.118,3.489 -2.665,-17.489 -3.293,-18.968c-0.342,-0.807 -14.313,0.473 -17.165,-0.032c-1.142,-0.202 -2.945,-2.656 1.566,-2.949c11.455,-0.744 15.676,0.04 15.627,-1.671c-0.076,-2.6 -0.877,-30.055 -1.103,-32.5c-0.084,-0.907 -3.914,-0.054 -4.604,-1.067c-1.74,-2.551 4.001,-2.487 4.258,-2.731c0.507,-0.483 -0.452,-19.538 -0.62,-28.691Z" style="fill:#19243b;"/><path d="M135.498,139.105c-3.505,6.114 -8.945,3.665 -7.581,5.267c3.571,4.195 11.203,9.643 7.763,11.644c-1.199,0.697 -2.327,1.354 -13.057,-11.403c-0.418,-0.497 -2.207,-3.581 1.738,-4.277c0.872,-0.154 6.32,-0.305 7.386,-3.455c0.659,-1.946 -11.79,1.308 -9.846,-2.842c1.225,-2.614 10.31,-0.633 9.29,-2.497c-2.766,-5.056 -8.195,-0.414 -9.613,-3.546c-1.267,-2.799 3.962,-2.696 14.133,-2.955c6.56,-0.167 4.487,2.809 4.142,3.031c-2.699,1.738 -5.921,-0.717 -4.59,2.225c0.869,1.92 1.169,1.806 3.291,1.867c3.291,0.094 2.829,3.354 -0.01,3.644c-0.191,0.019 -2.167,0.221 -2.289,0.701c-0.34,1.336 -0.376,1.289 -0.758,2.598Z" style="fill:#17223a;"/><path d="M155.712,136.536c0.128,13.534 -0.198,13.934 0.854,14.41c0.205,0.092 4.256,-0.638 5.248,1.397c0.477,0.979 -0.466,2.568 -2.135,2.715c-13.174,1.156 -13.528,-0.111 -13.827,-1.18c-0.961,-3.433 6.033,-1.756 5.996,-3.46c-0.032,-1.486 -0.404,-18.563 -0.412,-18.571c-0.388,-0.386 -5.135,5.935 -6.297,2.497c-0.274,-0.81 -0.623,-1.844 6.13,-8.762c0.203,-0.208 2.044,-2.094 3.624,-0.348c0.964,1.065 0.799,5.306 0.818,11.302Z" style="fill:#17223a;"/><path d="M247.163,177.546c0.014,-8.945 -0.306,-12.744 1.157,-13.593c3.662,-2.124 2.814,3.339 3.593,21.47c0.062,1.454 7.478,-0.16 14.407,-0.22c5.908,-0.051 3.052,3.461 2.781,3.606c-1.363,0.728 -16.394,2.128 -17.3,2.19c-5.607,0.386 -4.615,-4.156 -4.638,-13.453Z" style="fill:#17223a;"/><path d="M169.832,31.484c0.222,8.817 1.773,19.528 -3.53,16.746c-2.896,-1.519 -3.315,-20.989 -1.727,-23.252c0.4,-0.57 4.376,-3.47 5.097,2.735c0,0 0.147,3.469 0.16,3.771Z" style="fill:#f4f4f4;"/><path d="M122.041,31.171c0.332,9.689 1.901,20.979 -3.304,18.493c-3.27,-1.561 -3.154,-21.86 -1.886,-23.497c0.353,-0.456 4.674,-4.739 5.19,5.004Z" style="fill:#f4f4f4;"/><path d="M68.525,40.949c-0.275,-9.409 -0.078,-9.935 -0.038,-10.415c0.314,-3.684 5.317,-5.826 5.705,1.267c1.018,18.594 0.208,18.995 -1.254,19.562c-4.73,1.832 -4.294,-7.384 -4.413,-10.414Z" style="fill:#f4f4f4;"/><path d="M213.276,31.487c0.289,6.403 1.698,19.292 -3.09,15.745c-2.205,-1.633 -3.188,-21.467 -0.914,-23.252c0.115,-0.091 0.961,-0.754 1.809,-0.305c2.349,1.243 2.076,6.254 2.195,7.812Z" style="fill:#f3f3f3;"/><path d="M145.498,184.486c0.429,3.857 1.32,15.719 0.51,16.975c-0.187,0.289 -2.425,2.347 -2.981,-3.098c-0.905,-8.858 -1.373,-17.049 1.764,-15.032c0.601,0.386 0.44,0.477 0.708,1.156Z" style="fill:#19253d;"/><path d="M216.475,186.865c1.585,0.035 1.576,-0.002 1.907,0.087c3.512,0.953 0.541,4.423 -4.439,3.243c-0.326,-0.077 -3.879,-3.106 2.532,-3.331Z" style="fill:#1a263d;"/><path d="M246.546,220.768c0.024,-0.336 -0.051,-2.088 0.608,-2.766c2.672,-2.749 3.829,4.508 2.159,5.636c-2.399,1.621 -2.74,-2.553 -2.766,-2.871Z" style="fill:#19253d;"/><path d="M246.759,156.095c0.063,-2.274 -0.4,-2.436 0.459,-3.344c2.523,-2.667 3.788,3.699 2.354,5.21c-2.085,2.197 -2.765,-1.6 -2.813,-1.866Z" style="fill:#1a263e;"/><path d="M279.886,189.018c-5.288,-0.604 -0.246,-4.857 3.19,-3.021c1.363,0.728 0.861,2.882 -0.976,2.988c-0.737,0.043 -1.478,-0.011 -2.215,0.032Z" style="fill:#19253c;"/><path d="M236.442,48.529c-1.646,4.531 -6.302,-0.482 -2.988,-2.044c2.8,-1.32 2.971,1.755 2.988,2.044Z" style="fill:#15223c;"/><path d="M236.52,56.374c-2.38,4.069 -5.165,-1.345 -2.706,-2.203c2.821,-0.984 2.716,1.924 2.706,2.203Z" style="fill:#16243d;"/></g></svg>