<?xml version="1.0" encoding="UTF-8" standalone="no"?><!DOCTYPE svg PUBLIC "-//W3C//DTD SVG 1.1//EN" "http://www.w3.org/Graphics/SVG/1.1/DTD/svg11.dtd"><svg width="100%" height="100%" viewBox="0 0 113 110" version="1.1" xmlns="http://www.w3.org/2000/svg" xmlns:xlink="http://www.w3.org/1999/xlink" xml:space="preserve" xmlns:serif="http://www.serif.com/" style="fill-rule:evenodd;clip-rule:evenodd;stroke-linejoin:round;stroke-miterlimit:2;"><path d="M14.945,60.847c0.006,-0.038 0.069,-0.471 0.069,-0.471c0.715,-3.562 2.048,-11.348 8.503,-19.608c5.934,-7.594 12.725,-11.045 13.616,-11.541c1.685,-0.939 4.893,-2.119 6.185,-2.529c7.887,-2.5 13.517,-2.418 15.867,-2.41c3.376,0.012 7.916,0.619 8.145,0.661c5.497,0.999 11.789,2.298 20.202,9.236c7.065,5.826 13.068,15.72 14.391,25.952c2.392,18.513 -5.659,28.735 -9.236,33.522c-1.587,2.123 -5.896,6.463 -9.757,8.935c-8.813,5.641 -16.218,6.351 -19.649,6.843c-5.022,0.72 -11.662,0.007 -14.915,-0.735c-11.009,-2.511 -17.608,-7.995 -21.806,-12.337c-8.872,-9.178 -13.626,-22.552 -11.615,-35.517l0,-0.001Z" style="fill:#4385b8;"/><path d="M18.308,70.224c-0.001,-0.016 -0.581,-4.43 0.309,-9.367c2.337,-12.959 9.49,-19.865 10.224,-20.73c3.071,-3.618 8.016,-6.571 8.789,-7.033c0.724,-0.432 3.795,-2.267 9.814,-3.835c6.757,-1.761 7.224,-0.917 12.221,-0.817c2.522,0.05 2.515,0.104 5.042,0.166c6.49,0.16 16.048,3.69 22.75,10.458c0.626,0.632 4.059,4.099 6.701,8.87c6.008,10.851 5.716,24.504 1.541,33.819c-0.249,0.556 -1.851,4.131 -3.696,6.661c-0.321,0.44 -7.744,12.418 -22.039,15.797c-3.973,0.939 -7.973,1.44 -8.624,1.478c-8.167,0.469 -12.335,-0.622 -15.827,-1.663c-13.215,-3.94 -25.592,-16.466 -27.207,-33.804l0.002,0Z" style="fill:#f9fafc;"/><path d="M20.139,71.132c-1.062,-14.308 5.264,-23.046 6.462,-24.7c7.107,-9.817 13.769,-13.342 18.885,-14.402c3.585,-0.742 4.69,-0.975 5.12,-0.844c0.86,0.262 1.74,0.033 3.427,-0.143c13.774,-1.437 24.032,4.182 28.083,7.306c0.75,0.579 5.248,4.047 8.085,8.658c4.609,7.492 5.49,12.241 5.997,17.236c0.992,9.771 -2.613,20.366 -7.491,26.434c-11.511,14.319 -29.312,18.432 -45.642,11.708c-14.536,-5.985 -22.055,-20.348 -22.926,-31.253Z" style="fill:#f9d479;"/><path d="M23.595,62.768c0.103,-0.729 0.568,-4.034 2.524,-8.849c0.905,-2.227 2.399,-4.865 2.632,-5.275c1.353,-2.388 4.739,-7.872 11.253,-11.719c5.79,-3.419 7.738,-3.321 9.081,-3.859c1.364,-0.546 2.2,-1.266 4.819,-1.744c2.918,-0.533 6.325,-0.937 11.505,0.335c9.743,2.392 14.248,4.843 19.19,9.551c2.704,2.576 5.005,6.172 5.916,7.947c3.279,6.389 3.783,9.993 4.295,15.772c1.182,13.358 -6.79,22.948 -7.899,24.402c-2.051,2.692 -5.881,5.962 -8.122,7.408c-8.29,5.348 -15.082,5.97 -17.693,6.252c-1.751,0.189 -7.922,0.101 -16.283,-3.316c-16.853,-6.887 -23.373,-23.657 -21.217,-36.906l-0.001,0.001Zm1.684,6.494c0.761,9.521 7.325,22.061 20.016,27.286c14.258,5.87 29.799,2.28 39.849,-10.222c4.258,-5.297 7.406,-14.547 6.54,-23.078c-0.443,-4.361 -1.212,-8.508 -5.236,-15.049c-2.477,-4.026 -6.404,-7.054 -7.059,-7.559c-3.536,-2.727 -12.493,-7.633 -24.518,-6.378c-1.473,0.154 -2.242,0.354 -2.992,0.125c-0.375,-0.114 -1.34,0.089 -4.47,0.737c-4.467,0.925 -10.283,4.003 -16.488,12.574c-1.046,1.444 -6.569,9.073 -5.642,21.565l-0,-0.001Z" style="fill:#4385b8;"/><path d="M53.655,55.103c0.683,1.348 0.541,2.281 1.218,2.344c1.12,0.103 3.052,-0.345 3.297,1.258c0.084,0.546 -0.276,1.697 -1.622,1.729c-1.613,0.039 -2.057,-0.2 -2.245,0.647c-1.422,6.413 -7.997,7.482 -8.291,7.731c-0.31,0.262 0.122,0.752 0.873,1.695c0.208,0.261 5.353,7.01 7.047,9.05c0.239,0.288 1.216,1.221 0.16,2.112c-0.129,0.109 -0.466,0.393 -2.099,0.239c-0.989,-0.093 -1.208,-0.73 -4.254,-4.548c-2.022,-2.533 -5.145,-6.841 -5.896,-7.271c-0.24,-0.137 -1.637,-0.479 -1.362,-2.269c0.068,-0.441 0.436,-1.231 1.423,-1.262c0.202,-0.006 4.705,0.442 7.751,-3.488c0.629,-0.811 1.268,-2.408 0.686,-2.54c-0.721,-0.163 -8.314,0.064 -8.912,-0.158c-1.288,-0.478 -1.027,-2.884 0.957,-2.878c2.661,0.008 7.877,-0.024 7.905,-0.035c0.87,-0.344 -1.459,-4.035 -4.781,-4.125c-3.281,-0.089 -4.339,0.298 -4.93,-0.928c-0.307,-0.637 -0.067,-2.107 1.567,-2.104c3.603,0.007 3.594,-0.009 7.2,-0.006c7.065,0.006 7.069,-0.07 7.673,0.041c1.47,0.271 1.651,2.946 -0.473,2.941c-0.303,-0.001 -3.751,-0.008 -3.79,0.014c-0.018,0.011 -0.094,0.324 -0.084,0.375c0.025,0.137 0.203,0.021 0.984,1.436l-0.002,0Z" style="fill:#4385b8;"/><path d="M69.311,60.138c-0.009,-3.259 0.044,-3.281 -0.035,-3.366c-0.331,-0.356 -0.348,0.211 -3.534,2.51c-1.947,1.405 -3.066,-0.648 -3.148,-1.073c-0.321,-1.672 1.095,-1.331 6.495,-6.404c2.527,-2.374 3.978,-0.406 4.163,0.201c0.173,0.57 0.04,24.957 0.067,25.654c0.036,0.949 0.662,0.66 3.389,0.677c2.404,0.015 2.162,3.105 0.24,3.162c-0.358,0.011 -11.195,0.011 -11.52,0.004c-1.482,-0.035 -1.745,-1.815 -1.123,-2.583c0.451,-0.557 0.827,-0.572 1.362,-0.576c2.98,-0.021 3.533,0.131 3.627,-0.44c0.072,-0.439 0.022,-16.344 0.018,-17.765l-0.001,-0.001Z" style="fill:#4385b8;"/><path d="M11.138,18.89c-1.385,-2.502 1.18,-4.533 2.908,-3.82c1.14,0.47 3.665,3.424 9.226,8.492c2.043,1.862 0.449,3.662 -0.061,3.975c-1.941,1.192 -3.202,-0.483 -4.058,-1.288c-7.29,-6.863 -7.442,-6.703 -8.015,-7.358l0,-0.001Z" style="fill:#4385b8;"/><path d="M99.084,15.224c1.385,-2.502 -1.18,-4.533 -2.908,-3.82c-1.14,0.47 -3.665,3.424 -9.226,8.492c-2.043,1.862 -0.449,3.662 0.061,3.975c1.941,1.192 3.202,-0.483 4.058,-1.288c7.29,-6.863 7.442,-6.703 8.015,-7.358l-0,-0.001Z" style="fill:#4385b8;"/><path d="M55.533,13.098c-0.144,3.687 -4.697,3.601 -4.884,0.236c-0.012,-0.219 -0.026,-10.871 -0.017,-11.03c0.158,-2.835 4.178,-3.108 4.824,-0.515c0.133,0.536 0.055,1.598 0.077,11.309Z" style="fill:#4385b8;"/><path d="M31.519,11.651c0.466,-2.459 3.224,-2.84 4.291,-0.435c1.366,3.077 1.365,3.074 1.47,3.348c0.887,2.315 -2.698,4.581 -4.148,1.367c-1.34,-2.97 -1.645,-2.906 -1.613,-4.279l-0,-0.001Z" style="fill:#4385b8;"/><path d="M78.32,10.916c-0.466,-2.459 -3.224,-2.84 -4.291,-0.435c-1.366,3.077 -1.365,3.074 -1.47,3.348c-0.887,2.315 2.698,4.581 4.148,1.367c1.34,-2.97 1.645,-2.906 1.613,-4.279l0,-0.001Z" style="fill:#4385b8;"/><path d="M0.971,70.887c-1.9,-1.63 -0.854,-4.21 1.762,-3.937c3.349,0.35 3.346,0.349 3.635,0.395c2.449,0.385 2.626,4.622 -0.883,4.277c-3.242,-0.319 -3.34,-0.023 -4.513,-0.735l-0.001,0Z" style="fill:#4385b8;"/><path d="M110.557,46.576c2.492,0.238 3.124,2.949 0.829,4.233c-2.938,1.643 -2.936,1.642 -3.198,1.771c-2.224,1.096 -4.81,-2.265 -1.743,-4.005c2.834,-1.607 2.743,-1.906 4.112,-2l0,0.001Z" style="fill:#4385b8;"/><path d="M12.047,46.416c1.022,2.285 -1.025,4.172 -3.274,2.809c-2.878,-1.746 -2.876,-1.744 -3.118,-1.909c-2.05,-1.394 -0.402,-5.301 2.625,-3.491c2.796,1.673 3.011,1.446 3.768,2.591l-0.001,0Z" style="fill:#4385b8;"/><path d="M103.243,32.635c1.995,0.201 2.493,2.412 0.652,3.452c-2.357,1.331 -2.355,1.33 -2.566,1.435c-1.784,0.887 -3.845,-1.859 -1.385,-3.269c2.274,-1.302 2.202,-1.546 3.298,-1.619l-0,0.001Z" style="fill:#4385b8;"/></svg>