<svg width="111" height="10" viewBox="0 0 111 10" fill="none" xmlns="http://www.w3.org/2000/svg">
<path d="M-5.3994e-06 6.24581C0.0987876 6.86295 0.197581 7.48009 0.296373 8.09724C2.17209 8.00795 4.02201 7.91421 5.84675 7.81528C13.233 7.40691 20.5682 6.86765 27.8881 6.21482C53.454 4.0884 79.4159 3.30758 104.609 8.30883C106.368 8.70223 108.154 9.15602 109.851 9.71378C110.07 9.12833 110.288 8.54288 110.507 7.95742C108.764 7.23474 106.961 6.63728 105.184 6.10489C79.8173 -0.803558 53.3618 -0.921559 27.4441 1.23457C20.0243 1.89613 12.6575 3.11146 5.4118 4.84697C3.62229 5.27764 1.81802 5.74379 -5.3994e-06 6.24581Z" fill="#F5D57D"/>
</svg>
